#N canvas 0 0 1920 2026 12;
#N canvas 0 50 450 250 (subpatch) 0;
#X array \$0-pitches 4 float 3;
#A 0 93.4357 65.3143 50.8 19.9572;
#X coords 0 0 4 127 200 140 1 0 0;
#X restore 743 72 graph;
#X floatatom 194 87 5 0 0 0 - - - 0;
#X msg 194 109 tempo \$1 permin;
#X obj 194 139 metro 0.25 120 permin;
#X msg 151 202 0;
#X obj 133 261 f;
#X obj 180 259 + 1;
#X obj 178 292 % 4;
#X obj 128 350 array get \$0-pitches;
#X floatatom 126 394 5 0 0 0 - - - 0;
#X obj 108 83 tgl 15 0 empty empty empty 17 7 0 10 #fcfcfc #000000
#000000 0 1;
#X obj 565 370 comport;
#N canvas 1920 0 1920 2026 interface 1;
#X msg 48 599 1;
#X msg 85 600 -1;
#X obj 51 692 send volume_adj;
#X msg 31 28 close;
#X obj 139 78 comport;
#X msg 31 2 devicename /dev/ttyACM0;
#X obj 24 194 expr ($i1 + 1) % 2;
#X obj 25 167 i;
#X obj 145 118 t b f;
#X obj 269 64 bng 15 250 50 0 empty empty empty 17 7 0 10 #fcfcfc #000000
#000000;
#X obj 224 138 bng 15 250 50 0 empty empty empty 17 7 0 10 #fcfcfc
#000000 #000000;
#X listbox 275 169 20 0 0 0 - - - 0;
#X text 424 166 Command sequence;
#X obj 24 248 b;
#X obj 274 140 list prepend;
#X obj 24 221 sel 1;
#X obj 343 263 t f l;
#X obj 273 203 list length;
#X obj 274 257 b;
#X obj 273 289 list store;
#X obj 272 230 sel 2;
#X text 431 290 Complete command seq;
#X obj 490 552 print unrecognized;
#X obj 353 490 route 3 4 5 6 7 8 9;
#X text 372 430 Commands come here as a list of two numbers: 1 The
message ID (the function) 2 A value (e.g. \, note \, beat \, etc.)
;
#X text 499 482 This selects based on the message ID and outputs the
value;
#X obj 495 611 print beat;
#X obj 432 338 print Command;
#X obj 298 592 print volume_up;
#X obj 329 660 print volume_down;
#X connect 0 0 2 0;
#X connect 1 0 2 0;
#X connect 3 0 4 0;
#X connect 4 0 8 0;
#X connect 5 0 4 0;
#X connect 6 0 15 0;
#X connect 6 0 7 1;
#X connect 7 0 6 0;
#X connect 8 0 7 0;
#X connect 8 1 9 0;
#X connect 8 1 14 0;
#X connect 10 0 14 0;
#X connect 11 0 14 1;
#X connect 11 0 17 0;
#X connect 11 0 19 1;
#X connect 13 0 14 1;
#X connect 14 0 11 0;
#X connect 15 0 13 0;
#X connect 17 0 20 0;
#X connect 18 0 19 0;
#X connect 19 0 23 0;
#X connect 19 0 27 0;
#X connect 20 1 18 0;
#X connect 23 0 28 0;
#X connect 23 0 0 0;
#X connect 23 1 29 0;
#X connect 23 5 26 0;
#X connect 23 7 22 0;
#X restore 283 44 pd interface;
#X floatatom 496 839 5 0 0 0 - - - 0;
#X obj 535 842 max 0;
#X obj 538 873 min 127;
#X obj 535 801 + 64;
#X obj 534 676 r volume_adj;
#X floatatom 742 597 5 0 0 0 - volume - 0;
#X text 575 801 Default value;
#X text 520 758 Current value;
#X text 596 852 Limits;
#X connect 1 0 2 0;
#X connect 2 0 3 0;
#X connect 3 0 5 0;
#X connect 4 0 5 1;
#X connect 5 0 6 0;
#X connect 5 0 8 0;
#X connect 6 0 7 0;
#X connect 7 0 5 1;
#X connect 8 0 9 0;
#X connect 10 0 3 0;
#X connect 10 0 4 0;
#X connect 13 0 16 1;
#X connect 14 0 15 0;
#X connect 15 0 13 0;
#X connect 16 0 14 0;
#X connect 17 0 16 0;
